# xmcd
#
# Track frame offsets: 
#        150
#        14973
#        28875
#        41330
#        58871
#        70245
#        87496
#        103786
#        113770
#        132440
#        142992
#        160253
#        171650
#        187774
#        208174
#        222989
#        235181
#        249080
#        265729
#        282632
#        302911
#        314583
#
# Disc length: 4503 seconds
#
# Revision: 0
# Processed by: cddbd v1.5.2PL0 Copyright (c) Steve Scherf et al.
# Submitted via: ExactAudioCopy v1.0b3
#
DISCID=54119516
DTITLE=Ray Charles - 17 Original Albums [CD6]
DYEAR=2015
DGENRE=Blues
TTITLE0=Hardheaded Hannah
TTITLE1=Nancy (With The Laughing Face)
TTITLE2=Margie
TTITLE3=Ruby
TTITLE4=Rosetta
TTITLE5=Stella By Starlight
TTITLE6=Cherry
TTITLE7=Josephine
TTITLE8=Candy
TTITLE9=Marie
TTITLE10=Diane
TTITLE11=Sweet Georgia Brown
TTITLE12=From The Heart
TTITLE13=I've Got News For You
TTITLE14=Moanin'
TTITLE15=Let's Go
TTITLE16=One Mint Julep
TTITLE17=I'm Gonna Move To The Outskirts Of Town
TTITLE18=Stompin' Room Only
TTITLE19=Mister C
TTITLE20=Strike Up The Band
TTITLE21=Birth Of The Blues
EXTD=
EXTT0=
EXTT1=
EXTT2=
EXTT3=
EXTT4=
EXTT5=
EXTT6=
EXTT7=
EXTT8=
EXTT9=
EXTT10=
EXTT11=
EXTT12=
EXTT13=
EXTT14=
EXTT15=
EXTT16=
EXTT17=
EXTT18=
EXTT19=
EXTT20=
EXTT21=
PLAYORDER=
